<svg data-v-37f88cd9="" version="1.0" xmlns="http://www.w3.org/2000/svg" xmlns:xlink="http://www.w3.org/1999/xlink" width="100%" height="100%" viewBox="0 0 340.000000 250.000000" preserveAspectRatio="xMidYMid meet" color-interpolation-filters="sRGB" class="el-tooltip" style="margin: auto;"><rect data-v-37f88cd9="" x="0" y="0" width="100%" height="100%" fill="#fff" fill-opacity="1"></rect> <rect data-v-37f88cd9="" x="0" y="0" width="100%" height="100%" fill="url(#watermark)" fill-opacity="1" class="watermarklayer"></rect> <g data-v-37f88cd9="" fill="#e3b921" class="icon-text-wrapper icon-svg-group iconsvg" transform="translate(52.8699951171875,95)"><g fill="#e3b921" class="iconsvg-imagesvg" transform="translate(0,0)"><rect fill="#e3b921" fill-opacity="0" stroke-width="2" x="0" y="0" width="60" height="60" class="image-rect"></rect> <svg viewBox="0 0 60 66.70370596426504" x="0" y="0" width="60" height="60" hollow-target="iconBnFill" class="image-svg-svg" mask="url(#10ede4d0-6e6c-4b72-a9be-6758e45900e4)"><g><svg xmlns="http://www.w3.org/2000/svg" xmlns:xlink="http://www.w3.org/1999/xlink" version="1.1" x="0" y="0" viewBox="9.5 5 81 90.05000305175781" style="enable-background:new 0 0 100 100;" xml:space="preserve" width="60" height="66.70370596426504" filtersec="colorsb6989723141"><path d="M90.5,68.6V31.4c0-2.8-1.5-5.4-4-6.8L54,6c-1.2-0.7-2.6-1-4-1s-2.7,0.3-4,1L13.5,24.6c-2.4,1.4-4,4-4,6.8v37.2  c0,2.8,1.5,5.4,4,6.8L46,94c2.4,1.4,5.5,1.4,7.9,0l32.6-18.6C89,74,90.5,71.4,90.5,68.6z"></path></svg></g> <g><svg version="1.1" xmlns="http://www.w3.org/2000/svg" xmlns:xlink="http://www.w3.org/1999/xlink" x="12.5" y="13.896605409222019" viewBox="9 4.739999771118164 774 764.4500122070312" enable-background="new 0 0 791.67 778" xml:space="preserve" width="35" height="38.910495145821">
<g id="Layer_2" display="none">
</g>
<g id="Layer_1">
	<path fill="#0B6986" d="M243.12,300.96C113.82,300.96,9,405.78,9,535.08c0,129.3,104.82,234.11,234.12,234.11
		c129.29,0,234.11-104.81,234.11-234.11C477.23,405.78,372.41,300.96,243.12,300.96z M322.86,576.35
		c-59.36,0-107.49-48.13-107.49-107.49c0-59.37,48.13-107.51,107.49-107.51c59.37,0,107.5,48.13,107.5,107.51
		C430.36,528.22,382.24,576.35,322.86,576.35z"></path>
	<path fill="#E3B921" d="M603.83,81.19c-98.94,0-179.17,80.22-179.17,179.17s80.22,179.17,179.17,179.17
		c98.96,0,179.17-80.23,179.17-179.17S702.79,81.19,603.83,81.19z M527.29,371.83c-38.26,0-69.28-31.02-69.28-69.28
		c0-38.26,31.02-69.28,69.28-69.28c38.26,0,69.28,31.02,69.28,69.28C596.57,340.81,565.55,371.83,527.29,371.83z"></path>
	<path fill="#0B6986" d="M233.55,4.74c-60.68,0-109.88,49.2-109.88,109.89c0,60.69,49.2,109.9,109.88,109.9
		c60.7,0,109.89-49.21,109.89-109.9C343.45,53.95,294.25,4.74,233.55,4.74z M267,181.53c-18.47,0-33.45-14.98-33.45-33.45
		c0-18.47,14.98-33.44,33.45-33.44c18.47,0,33.45,14.97,33.45,33.44C300.45,166.55,285.47,181.53,267,181.53z"></path>
</g>
</svg></g><mask id="10ede4d0-6e6c-4b72-a9be-6758e45900e4"><g fill="white"><svg xmlns="http://www.w3.org/2000/svg" xmlns:xlink="http://www.w3.org/1999/xlink" version="1.1" x="0" y="0" viewBox="9.5 5 81 90.05000305175781" style="enable-background:new 0 0 100 100;" xml:space="preserve" width="60" height="66.70370596426504" filtersec="colorsb6989723141"><path d="M90.5,68.6V31.4c0-2.8-1.5-5.4-4-6.8L54,6c-1.2-0.7-2.6-1-4-1s-2.7,0.3-4,1L13.5,24.6c-2.4,1.4-4,4-4,6.8v37.2  c0,2.8,1.5,5.4,4,6.8L46,94c2.4,1.4,5.5,1.4,7.9,0l32.6-18.6C89,74,90.5,71.4,90.5,68.6z"></path></svg></g> <g fill="black"><svg version="1.1" xmlns="http://www.w3.org/2000/svg" xmlns:xlink="http://www.w3.org/1999/xlink" x="12.5" y="13.896605409222019" viewBox="9 4.739999771118164 774 764.4500122070312" enable-background="new 0 0 791.67 778" xml:space="preserve" width="35" height="38.910495145821">
<g id="Layer_2" display="none">
</g>
<g id="Layer_1">
	<path d="M243.12,300.96C113.82,300.96,9,405.78,9,535.08c0,129.3,104.82,234.11,234.12,234.11
		c129.29,0,234.11-104.81,234.11-234.11C477.23,405.78,372.41,300.96,243.12,300.96z M322.86,576.35
		c-59.36,0-107.49-48.13-107.49-107.49c0-59.37,48.13-107.51,107.49-107.51c59.37,0,107.5,48.13,107.5,107.51
		C430.36,528.22,382.24,576.35,322.86,576.35z"></path>
	<path d="M603.83,81.19c-98.94,0-179.17,80.22-179.17,179.17s80.22,179.17,179.17,179.17
		c98.96,0,179.17-80.23,179.17-179.17S702.79,81.19,603.83,81.19z M527.29,371.83c-38.26,0-69.28-31.02-69.28-69.28
		c0-38.26,31.02-69.28,69.28-69.28c38.26,0,69.28,31.02,69.28,69.28C596.57,340.81,565.55,371.83,527.29,371.83z"></path>
	<path d="M233.55,4.74c-60.68,0-109.88,49.2-109.88,109.89c0,60.69,49.2,109.9,109.88,109.9
		c60.7,0,109.89-49.21,109.89-109.9C343.45,53.95,294.25,4.74,233.55,4.74z M267,181.53c-18.47,0-33.45-14.98-33.45-33.45
		c0-18.47,14.98-33.44,33.45-33.44c18.47,0,33.45,14.97,33.45,33.44C300.45,166.55,285.47,181.53,267,181.53z"></path>
</g>
</svg></g></mask></svg> <!----></g> <g transform="translate(67,5.71600341796875)"><g class="tp-name iconsvg-namesvg" transform="translate(0,0)"><g><path d="M8.76-22.37L8.72-26.85Q9.34-28.55 10.79-28.22L10.79-28.22Q12.12-27.23 11.95-25.19L11.95-25.19Q11.70-23.74 11.75-22.16L11.75-22.16Q11.70-21.17 12.95-21.17L12.95-21.17Q13.99-21.25 15.15-21.04L15.15-21.04Q17.14-20.63 16.02-19.17L16.02-19.17Q14.98-18.39 12.99-18.59L12.99-18.59Q11.66-18.51 11.66-17.27L11.66-17.27L11.62-15.27Q11.62-14.24 12.04-14.44L12.04-14.44Q13.57-14.57 15.77-13.36L15.77-13.36Q17.06-12.49 16.85-11.12L16.85-11.12Q16.68-10.29 16.06-10.09L16.06-10.09Q13.95-9.50 12.66-12.24L12.66-12.24Q11.62-13.24 11.62-12.29L11.62-12.29Q11.54-6.77 11.79-1.08L11.79-1.08Q11.91 0.50 11.58 1.41L11.58 1.41Q11.25 2.37 10.46 2.66L10.46 2.66Q9.05 2.49 8.67 1.04L8.67 1.04Q8.84-4.36 8.84-9.79L8.84-9.79Q8.84-10.87 8.01-9.55L8.01-9.55Q6.52-6.89 3.53-5.02L3.53-5.02Q2.78-4.40 1.58-4.90L1.58-4.90Q0.17-6.18 2.08-7.80L2.08-7.80Q8.34-12.41 8.80-17.35L8.80-17.35Q8.80-18.39 7.55-18.34L7.55-18.34L4.36-18.18Q1.70-18.01 3.03-20.30L3.03-20.30Q5.06-22.25 7.76-21.17L7.76-21.17Q8.76-21.08 8.76-22.37L8.76-22.37ZM25.15-26.27L25.15-26.27Q25.48-27.56 26.52-27.52L26.52-27.52Q28.76-27.39 28.55-24.57L28.55-24.57Q28.35-23.91 28.31-23.12L28.31-23.12Q28.26-22.12 29.55-22.16L29.55-22.16L32.66-22.16Q33.87-21.96 34.07-21.21L34.07-21.21Q34.41-20.50 33.41-19.59L33.41-19.59Q32.71-19.09 31.00-19.42L31.00-19.42L29.22-19.42Q28.22-19.34 28.22-18.34L28.22-18.34Q28.22-17.14 29.30-17.10L29.30-17.10Q32.33-17.10 34.57-16.77L34.57-16.77Q35.90-16.44 35.98-16.06L35.98-16.06Q36.40-14.28 34.32-13.95L34.32-13.95Q30.84-14.53 28.18-14.73L28.18-14.73Q24.94-14.90 22.41-14.36L22.41-14.36Q20.30-13.95 18.84-14.15L18.84-14.15Q17.51-14.90 18.51-16.15L18.51-16.15Q20.21-17.31 24.28-17.14L24.28-17.14Q25.32-17.14 25.32-18.22L25.32-18.22Q25.40-19.42 24.40-19.42L24.40-19.42Q23.24-19.38 21.42-19.01L21.42-19.01Q19.84-18.39 18.93-19.55L18.93-19.55Q18.59-20.46 19.42-21.50L19.42-21.50Q20.75-22.87 22.25-22.37L22.25-22.37L24.32-22.16Q25.32-22.12 25.32-23.37L25.32-23.37Q25.15-24.82 25.15-26.27ZM25.32-11.58L25.32-11.58Q24.78-14.07 27.06-14.24L27.06-14.24Q28.93-13.74 28.68-11.37L28.68-11.37Q28.43-10.25 29.34-10.25L29.34-10.25Q32.12-10.38 33.74-9.84L33.74-9.84Q34.37-9.50 34.32-8.84L34.32-8.84Q34.24-7.10 31.67-7.47L31.67-7.47L29.43-7.51Q28.39-7.51 28.39-6.52L28.39-6.52L28.39-5.35Q28.39-4.19 29.22-4.15L29.22-4.15Q33.62-3.90 39.72-2.66L39.72-2.66Q41.79-2.24 40.59-0.79L40.59-0.79Q38.27 1.70 35.49 0.08L35.49 0.08Q33.83-0.83 32.17-1.20L32.17-1.20Q23.82-2.95 17.02-0.04L17.02-0.04Q16.27 0.42 15.36 0.54L15.36 0.54Q13.74 0.58 13.65-1.04L13.65-1.04Q13.78-2.49 15.27-3.24L15.27-3.24Q17.60-4.03 24.45-4.27L24.45-4.27Q25.48-4.27 25.48-5.52L25.48-5.52Q25.57-5.98 25.52-6.43L25.52-6.43Q25.52-7.47 24.28-7.43L24.28-7.43L21.13-7.10Q19.05-7.35 19.63-9.26L19.63-9.26Q20.25-10.09 21.58-10.21L21.58-10.21Q22.41-10.38 24.40-10.33L24.40-10.33Q25.40-10.33 25.32-11.58ZM68.73-22.08L68.61-27.39Q68.98-28.76 70.18-28.97L70.18-28.97Q71.05-29.09 71.80-27.35L71.80-27.35Q71.97-25.73 71.64-22.08L71.64-22.08Q71.64-21.04 72.63-21.04L72.63-21.04L76.12-21.04Q77.53-21.25 78.65-20.46L78.65-20.46Q79.06-20.05 79.06-19.51L79.06-19.51Q78.77-18.39 77.53-18.26L77.53-18.26L72.92-18.26Q71.55-18.22 71.51-16.98L71.51-16.98L71.51-15.61Q71.51-14.61 72.67-13.41L72.67-13.41Q79.27-8.01 83.05-6.56L83.05-6.56Q84.00-6.18 83.96-5.48L83.96-5.48Q83.59-4.19 81.56-3.53L81.56-3.53Q79.65-2.74 78.23-4.07L78.23-4.07Q75.08-8.13 72.63-10.33L72.63-10.33Q71.51-11.21 71.51-10.21L71.51-10.21Q71.55-4.61 71.72 1.00L71.72 1.00Q71.51 2.20 70.81 2.78L70.81 2.78Q69.19 3.36 68.61 1.29L68.61 1.29Q68.81-4.27 68.81-9.84L68.81-9.84Q68.81-10.87 67.69-9.50L67.69-9.50Q64.79-6.14 61.72-4.73L61.72-4.73Q58.98-3.61 57.73-4.98L57.73-4.98Q56.69-6.06 57.98-6.97L57.98-6.97Q60.64-7.68 62.96-9.34L62.96-9.34Q68.85-12.95 68.77-17.18L68.77-17.18Q68.77-18.22 67.78-18.22L67.78-18.22Q65.29-18.14 62.75-17.89L62.75-17.89Q61.34-18.10 61.47-19.42L61.47-19.42Q62.59-21.87 64.75-21.29L64.75-21.29Q66.24-21.08 67.73-21.04L67.73-21.04Q68.73-21.04 68.73-22.08L68.73-22.08ZM53.91-27.89L53.91-27.89Q55.24-28.47 55.91-26.56L55.91-26.56Q56.11-24.99 55.82-22.08L55.82-22.08Q55.82-21.04 56.82-21.04L56.82-21.04Q59.10-21.17 60.22-20.46L60.22-20.46Q60.68-20.05 60.64-19.63L60.64-19.63Q60.18-18.26 58.94-18.22L58.94-18.22L56.78-18.22Q55.74-18.22 55.74-17.22L55.74-17.22L55.74-15.90Q55.74-14.90 56.98-14.69L56.98-14.69Q58.35-14.28 59.89-13.49L59.89-13.49Q62.26-12.58 62.34-10.83L62.34-10.83Q61.47-8.34 59.60-9.67L59.60-9.67Q58.40-10.83 57.15-11.87L57.15-11.87Q55.74-12.87 55.74-11.83L55.74-11.83Q55.70-6.27 55.82-0.58L55.82-0.58Q55.62 0.54 55.32 1.04L55.32 1.04Q53.79 2.57 52.75 0.33L52.75 0.33Q52.59-0.87 52.75-2.12L52.75-2.12L52.92-10.21Q52.92-11.29 51.84-9.96L51.84-9.96Q48.89-6.43 45.78-5.69L45.78-5.69Q44.95-5.48 44.12-6.23L44.12-6.23Q42.96-7.72 45.61-9.21L45.61-9.21Q49.10-10.92 51.96-14.57L51.96-14.57Q53.08-15.94 52.88-17.14L52.88-17.14Q52.88-18.14 51.63-18.22L51.63-18.22Q48.23-17.81 46.65-18.01L46.65-18.01Q46.03-18.34 45.86-18.97L45.86-18.97Q45.70-20.13 47.19-21.13L47.19-21.13Q47.60-21.25 48.73-21.25L48.73-21.25L51.80-21.17Q52.88-21.13 52.88-22.04L52.88-22.04Q52.83-24.28 52.92-26.52L52.92-26.52Q53.21-27.35 53.91-27.89ZM107.58-27.35L107.58-27.35Q108.37-29.72 110.65-27.43L110.65-27.43Q111.77-25.73 110.44-24.16L110.44-24.16Q109.99-23.24 111.15-23.16L111.15-23.16Q114.51-23.45 121.69-23.24L121.69-23.24Q122.52-23.33 122.89-22.58L122.89-22.58Q123.06-21.04 121.40-19.96L121.40-19.96Q120.32-19.38 118.91-20.09L118.91-20.09Q115.46-21.54 109.40-20.17L109.40-20.17Q108.45-19.92 107.70-18.64L107.70-18.64Q106.75-16.77 105.67-15.69L105.67-15.69Q104.22-13.99 103.10-15.07L103.10-15.07Q102.89-15.73 103.39-16.56L103.39-16.56Q107.95-22.04 107.58-27.35ZM94.55-25.03L94.55-25.03Q93.55-27.23 95.87-27.39L95.87-27.39Q97.53-27.31 98.03-25.90L98.03-25.90Q98.32-24.28 97.78-21.79L97.78-21.79Q97.62-20.96 98.74-20.96L98.74-20.96L103.39-20.96Q104.42-20.75 104.47-20.05L104.47-20.05Q104.26-19.22 102.89-18.34L102.89-18.34Q102.22-17.89 100.44-18.22L100.44-18.22Q93.80-18.76 88.65-17.43L88.65-17.43Q87.57-17.22 86.87-17.68L86.87-17.68Q86.12-18.47 86.74-19.59L86.74-19.59Q87.49-20.75 88.94-20.92L88.94-20.92L94.30-20.96Q95.33-20.96 95.33-22.00L95.33-22.00Q95.33-23.70 94.55-25.03ZM115.71-18.26L115.71-18.26Q116.38-18.88 117.54-18.30L117.54-18.30Q118.66-17.31 118.62-16.31L118.62-16.31Q118.70-15.36 117.66-14.90L117.66-14.90Q113.93-14.07 110.19-13.45L110.19-13.45Q108.62-13.36 108.57-11.62L108.57-11.62Q108.62-7.64 108.49-3.53L108.49-3.53Q108.49-2.53 109.74-2.91L109.74-2.91Q112.48-3.78 113.89-3.49L113.89-3.49Q114.92-3.15 114.84-2.16L114.84-2.16Q114.18-0.91 112.68-0.79L112.68-0.79Q109.20-0.04 106.04 1.87L106.04 1.87Q104.09 3.32 103.14 1.78L103.14 1.78Q102.64-0.37 104.80-1.33L104.80-1.33Q105.59-1.49 105.75-2.78L105.75-2.78Q106.04-7.84 105.50-12.24L105.50-12.24Q104.96-13.03 105.46-14.32L105.46-14.32Q106.50-15.77 108.37-15.56L108.37-15.56Q112.85-16.02 115.71-18.26ZM94.05-17.18L94.05-17.18Q94.50-18.39 95.46-17.72Q96.41-17.06 96.70-15.73L96.70-15.73Q96.75-15.11 97.58-14.98L97.58-14.98Q100.44-14.53 102.47-12.87L102.47-12.87Q102.81-12.49 102.47-11.41L102.47-11.41Q101.93-9.75 101.52-8.09L101.52-8.09Q100.48-3.53 97.82 0.21L97.82 0.21Q96.21 2.41 94.59 1.66L94.59 1.66Q93.47 0.75 94.84-0.79L94.84-0.79Q99.36-7.60 98.95-11.37L98.95-11.37Q97.82-12.87 95.87-12.20L95.87-12.20Q95.25-11.95 94.75-10.71L94.75-10.71Q92.89-5.48 90.35-0.75L90.35-0.75Q89.27 1.04 88.03 1.83L88.03 1.83Q86.62 2.32 85.87 0.83L85.87 0.83Q85.66-0.29 87.32-2.24L87.32-2.24Q91.06-7.55 93.30-13.86L93.30-13.86Q93.67-16.10 94.05-17.18ZM115.88-11.87L115.88-11.87Q116.54-12.82 117.41-12.62L117.41-12.62Q119.49-11.99 119.12-10.17L119.12-10.17Q119.07-9.67 118.20-9.17L118.20-9.17Q117.04-8.88 115.84-8.30L115.84-8.30Q114.76-7.84 115.96-6.77L115.96-6.77Q119.70-3.86 124.64-0.95L124.64-0.95Q126.55 0 125.51 1.29L125.51 1.29Q123.02 3.57 120.53 1.58L120.53 1.58Q116.34-4.11 111.85-6.47L111.85-6.47Q111.40-6.72 111.02-6.68L111.02-6.68Q109.86-6.52 109.74-7.80L109.74-7.80Q109.82-8.01 110.03-8.22L110.03-8.22Q114.18-9.71 115.88-11.87ZM154.35-26.94L154.35-26.94Q154.10-29.68 156.39-28.60L156.39-28.60Q158.50-27.10 157.18-25.28L157.18-25.28Q156.76-24.28 158.13-24.36L158.13-24.36Q161.74-24.45 165.35-24.40L165.35-24.40Q167.09-24.11 165.52-22.33L165.52-22.33Q164.44-21.00 163.07-21.33L163.07-21.33Q161.57-21.96 157.80-21.91L157.80-21.91Q157.01-22.00 156.10-21.75L156.10-21.75Q155.72-21.62 155.43-21.17L155.43-21.17Q154.98-20.50 154.64-19.84L154.64-19.84Q153.90-18.88 154.69-19.34L154.69-19.34Q157.47-20.30 161.95-19.59L161.95-19.59Q165.93-18.55 162.99-15.65L162.99-15.65L161.53-14.57Q160.54-14.11 160.62-13.90L160.62-13.90Q160.70-13.74 161.70-13.70L161.70-13.70Q164.31-13.49 167.05-13.12L167.05-13.12Q169.00-12.95 167.68-11.29L167.68-11.29Q166.51-9.21 164.56-10.25L164.56-10.25Q163.11-10.83 161.87-11.04L161.87-11.04Q160.87-11.12 160.91-9.88L160.91-9.88Q160.99-7.72 160.79-6.85L160.79-6.85Q159.71-2.86 155.47-2.82L155.47-2.82Q154.64-2.95 153.81-3.28L153.81-3.28Q152.53-3.82 152.11-4.48Q151.70-5.15 152.32-5.60L152.32-5.60Q154.56-5.56 156.18-6.14L156.18-6.14Q158.46-7.35 158.59-10.21L158.59-10.21Q158.63-11.21 157.63-11.21L157.63-11.21Q155.47-11.25 152.86-10.13L152.86-10.13Q151.70-9.88 151.03-11.08L151.03-11.08Q150.95-11.62 150.45-10.29L150.45-10.29Q149.25-7.43 147.55-5.69L147.55-5.69Q146.47-4.57 145.26-5.23L145.26-5.23Q144.23-6.14 146.05-7.89L146.05-7.89Q148.63-11.29 148.87-14.69L148.87-14.69Q147.92-16.48 146.51-15.11L146.51-15.11Q144.56-10.42 141.82-7.06L141.82-7.06Q140.37-5.40 139.25-5.56L139.25-5.56Q137.21-6.27 139.04-8.47L139.04-8.47Q144.35-14.15 145.18-19.51L145.18-19.51Q145.26-20.50 144.02-20.38L144.02-20.38Q142.98-20.25 141.90-20.00L141.90-20.00Q140.66-19.88 139.91-20.42L139.91-20.42Q139.12-21.75 140.66-22.58L140.66-22.58Q141.86-22.99 145.06-23.20L145.06-23.20Q146.05-23.28 145.84-24.53L145.84-24.53Q145.22-26.73 145.31-27.60L145.31-27.60Q145.72-28.89 147.50-28.31L147.50-28.31Q148.83-27.77 148.83-26.69L148.83-26.69L148.38-24.32Q148.09-23.24 149.08-23.24L149.08-23.24Q151.45-23.33 152.65-22.74L152.65-22.74Q153.02-22.41 152.94-21.91L152.94-21.91Q152.86-21.37 153.36-22.25L153.36-22.25Q154.44-24.28 154.35-26.94ZM131.28-25.44L131.28-25.44Q132.60-26.81 134.27-26.31L134.27-26.31Q134.72-26.15 135.18-25.65L135.18-25.65Q136.38-23.99 137.42-23.45L137.42-23.45Q138.00-22.95 138.08-22.41L138.08-22.41Q138.25-20.42 136.30-21.25L136.30-21.25Q134.93-22.16 133.06-22.91L133.06-22.91Q131.77-23.28 131.19-23.95L131.19-23.95Q130.74-24.86 131.28-25.44ZM152.03-19.84L152.03-19.84Q152.57-20.75 152.11-20.50L152.11-20.50Q151.66-20.09 150.04-20.46L150.04-20.46Q149.21-20.59 148.38-20.59L148.38-20.59Q147.55-20.63 147.34-19.26L147.34-19.26Q147.26-18.14 148.63-17.97L148.63-17.97Q150.16-17.89 151.70-16.77L151.70-16.77Q152.49-16.19 151.99-15.11L151.99-15.11Q151.57-14.03 151.32-12.95L151.32-12.95Q151.16-12.16 151.41-12.53L151.41-12.53Q152.36-13.74 153.65-13.41L153.65-13.41L157.01-13.70Q158.01-13.70 157.96-13.82L157.96-13.82Q155.89-14.82 156.01-15.94L156.01-15.94Q156.35-16.60 156.84-16.73L156.84-16.73Q157.80-17.27 158.96-16.31L158.96-16.31Q159.42-15.85 160.21-16.35L160.21-16.35Q161.37-17.14 160.58-17.60L160.58-17.60Q158.92-18.14 157.42-17.35L157.42-17.35Q155.60-16.10 154.10-16.64L154.10-16.64Q153.02-17.31 153.65-18.43L153.65-18.43Q153.85-18.68 153.32-18.26L153.32-18.26L152.53-17.93Q151.12-18.22 152.03-19.84ZM129.53-18.10L129.53-18.10Q130.65-19.26 132.11-18.76L132.11-18.76Q133.85-17.72 135.43-17.35L135.43-17.35Q136.22-17.27 136.88-16.48L136.88-16.48Q137.50-14.61 135.30-14.86L135.30-14.86Q132.77-15.52 129.91-15.48L129.91-15.48Q128.04-16.15 129.53-18.10ZM131.19-12.53L131.19-12.53Q132.44-13.07 134.51-11.46L134.51-11.46Q135.34-10.71 136.17-10.63L136.17-10.63Q139.20-9.88 136.80-7.14L136.80-7.14Q135.88-6.18 134.85-5.23L134.85-5.23L134.22-4.36Q134.22-4.11 135.47-4.15L135.47-4.15Q145.35-3.74 155.72-1.66L155.72-1.66Q160.79-0.66 167.18-0.50L167.18-0.50Q169.09 0.04 167.55 1.58L167.55 1.58Q163.90 4.19 160.62 3.49L160.62 3.49Q157.30 2.20 153.98 1.08L153.98 1.08Q145.35-2.12 134.93-1.33L134.93-1.33Q131.44-0.83 130.94-3.65L130.94-3.65Q131.07-5.69 133.56-7.84L133.56-7.84Q134.47-8.67 133.10-8.92L133.10-8.92Q131.86-9.17 130.32-9.92L130.32-9.92Q128.75-11.33 131.19-12.53Z" transform="translate(-0.9774169921875, 28.97802734375)"></path></g> <!----> <!----> <!----> <!----> <!----> <!----> <!----></g> <g class="tp-slogan iconsvg-slogansvg" fill="#0b6986" transform="translate(35.15756607055664,39.61577606201172)"><!----> <!----> <!----> <g><path d="M7.31-3.61L4.69-3.61L4.69-4.59L8.44-4.59L8.44 0L7.69 0L7.41-1.08Q6.42 0.09 4.59 0.14L4.59 0.14Q2.86 0.14 1.92-0.75L1.92-0.75Q0.52-2.06 0.56-4.36L0.56-4.36Q0.89-8.63 4.64-8.81L4.64-8.81Q7.83-8.63 8.30-6L8.30-6L7.17-6Q6.70-7.78 4.59-7.83L4.59-7.83Q1.92-7.64 1.78-4.31L1.78-4.31Q1.78-0.75 4.64-0.75L4.64-0.75Q5.67-0.75 6.42-1.31L6.42-1.31Q7.36-2.06 7.31-3.61L7.31-3.61ZM15.89-3.19L15.89-8.58L17.06-8.58L17.06-3.05Q16.92 0.05 13.55 0.14L13.55 0.14Q10.41 0.05 10.27-2.86L10.27-2.86L10.27-8.58L11.44-8.58L11.44-3.19Q11.48-0.84 13.59-0.80L13.59-0.80Q15.89-0.84 15.89-3.19L15.89-3.19ZM19.03-8.58L20.20-8.58L20.20 0L19.03 0L19.03-8.58ZM22.17-8.58L23.34-8.58L23.34-1.03L27.70-1.03L27.70 0L22.17 0L22.17-8.58ZM29.02-8.58L30.19-8.58L30.19 0L29.02 0L29.02-8.58ZM33.56-8.58L37.88-1.64L37.88-8.58L39-8.58L39 0L37.69 0L33.33-6.94L33.28-6.94L33.28 0L32.16 0L32.16-8.58L33.56-8.58ZM46.31-7.59L43.41-7.59L43.41-8.58L50.34-8.58L50.34-7.59L47.44-7.59L47.44 0L46.31 0L46.31-7.59ZM58.17-4.27L58.17-4.27Q57.98-7.64 55.17-7.83L55.17-7.83Q52.31-7.69 52.17-4.27L52.17-4.27Q52.31-0.94 55.17-0.80L55.17-0.80Q57.98-0.98 58.17-4.27ZM59.34-4.27L59.34-4.27Q59.06 0 55.17 0.14L55.17 0.14Q51.23 0 50.95-4.27L50.95-4.27Q51.19-8.72 55.17-8.81L55.17-8.81Q59.06-8.67 59.34-4.27ZM66.38-3.19L66.38-8.58L67.55-8.58L67.55-3.05Q67.41 0.05 64.03 0.14L64.03 0.14Q60.89 0.05 60.75-2.86L60.75-2.86L60.75-8.58L61.92-8.58L61.92-3.19Q61.97-0.84 64.08-0.80L64.08-0.80Q66.38-0.84 66.38-3.19L66.38-3.19ZM73.45-3.70L70.64-3.70L70.64 0L69.47 0L69.47-8.58L73.45-8.58Q76.31-8.58 76.31-6.28L76.31-6.28Q76.31-4.88 75.09-4.22L75.09-4.22Q76.13-3.94 76.13-2.58L76.13-2.58L76.22-1.03Q76.17-0.38 76.64-0.19L76.64-0.19L76.64 0L75.19 0Q75.05-0.61 75-2.16L75-2.16Q75.05-3.70 73.45-3.70L73.45-3.70ZM73.55-7.64L70.64-7.64L70.64-4.69L73.36-4.69Q75.09-4.69 75.09-6.19L75.09-6.19Q75.09-7.64 73.55-7.64L73.55-7.64ZM78.14-8.58L79.31-8.58L79.31 0L78.14 0L78.14-8.58ZM87.56-6.09L87.56-6.09L86.48-6.09Q86.39-7.73 84.33-7.83L84.33-7.83Q82.41-7.78 82.41-6.33L82.41-6.33Q82.41-5.39 83.44-5.25L83.44-5.25L85.88-4.69Q87.80-4.22 87.80-2.34L87.80-2.34Q87.75 0.05 84.42 0.14L84.42 0.14Q82.59 0.14 81.84-0.61L81.84-0.61Q80.91-1.31 80.95-2.77L80.95-2.77L82.08-2.77Q82.13-0.80 84.42-0.75L84.42-0.75Q86.67-0.80 86.72-2.20L86.72-2.20Q86.91-3.38 84.84-3.75L84.84-3.75L83.06-4.13Q81.23-4.64 81.23-6.19L81.23-6.19Q81.38-8.72 84.23-8.81L84.23-8.81Q87.47-8.81 87.56-6.09ZM97.50-8.58L97.50 0L96.38 0L96.38-5.06Q96.38-5.77 96.38-7.22L96.38-7.22L93.94 0L92.77 0L90.38-7.22L90.33-7.22Q90.33-6.70 90.38-5.67L90.38-5.67Q90.38-5.16 90.38-5.06L90.38-5.06L90.38 0L89.20 0L89.20-8.58L90.89-8.58L93.38-1.31L95.81-8.58L97.50-8.58Z" transform="translate(-0.56098790322581, 8.8125)"></path></g></g></g></g></svg>